<?xml version="1.0"?>
<svg version="1.1" xmlns="http://www.w3.org/2000/svg" width="236" height="40" style=""><path fill="#" d="M40.844,16.192c0,0.084-0.028,0.168-0.056,0.252l-5.236,17.92c-0.14,0.504-0.448,0.756-0.924,0.756l-1.848,0c-0.448,0-0.756-0.224-0.896-0.728l-3.64-12.824l-0.056,0l-3.64,12.74c-0.196,0.644-0.42,0.812-0.952,0.812l-1.792,0c-0.476,0-0.728-0.14-0.924-0.84l-5.348-17.724c-0.028-0.14-0.056-0.252-0.056-0.364c0-0.308,0.168-0.448,0.504-0.448l2.688,0c0.588,0,0.84,0.252,0.952,0.7l3.416,12.908l0.028,0l3.556-12.992c0.112-0.448,0.42-0.616,0.84-0.616l1.876,0c0.448,0,0.672,0.224,0.784,0.588l3.556,13.02l0.056,0l3.388-12.964c0.14-0.504,0.448-0.644,0.868-0.644l2.408,0c0.308,0,0.448,0.196,0.448,0.448z M56.622,28.288c0,0.672-0.224,0.812-0.924,0.812l-8.204,0c0.224,2.156,1.792,3.64,4.004,3.64c1.176,0,2.408-0.28,3.444-0.672c0.112-0.028,0.196-0.084,0.308-0.084c0.196,0,0.336,0.112,0.392,0.336l0.392,1.428c0.028,0.14,0.056,0.252,0.056,0.336c0,0.196-0.112,0.336-0.448,0.476c-1.372,0.616-3.248,0.896-4.704,0.896c-4.396,0-7-2.8-7-7.168c0-4.2,2.772-7.112,6.944-7.112c1.708,0,3.108,0.644,4.088,1.68c1.288,1.344,1.652,3.108,1.652,5.012l0,0.42z M53.29,26.888l0-0.308c-0.056-1.456-0.896-2.8-2.604-2.8c-1.82,0-2.912,1.456-3.136,3.108l5.74,0z M73.632,28.344c0,3.864-1.988,7.112-6.16,7.112c-1.26,0-2.772-0.728-3.556-1.596l-0.112,0.924c-0.028,0.252-0.252,0.336-0.616,0.336l-1.68,0c-0.476,0-0.672-0.224-0.672-0.7l0-18.256c0-0.448,0.112-0.7,0.56-0.756l2.072-0.28c0.112-0.028,0.196-0.028,0.28-0.028c0.28,0,0.476,0.112,0.476,0.56l0,6.888c0.896-0.784,2.24-1.372,3.696-1.372c1.54,0,2.688,0.504,3.584,1.316c1.484,1.316,2.128,3.5,2.128,5.852z M70.132,28.372c0-2.268-0.7-4.34-3.024-4.34c-1.036,0-2.128,0.56-2.884,1.26l0,5.992c0.672,0.756,1.708,1.372,2.744,1.372c2.436,0,3.164-2.1,3.164-4.284z M94.45,25.516c0,3.36-1.148,5.88-3.052,7.504c-1.736,1.456-4.172,2.1-6.944,2.1l-5.348,0c-0.56,0-0.812-0.14-0.812-0.784l0-17.752c0-0.588,0.168-0.84,0.868-0.84l4.032,0c3.22,0,5.404,0.364,7.252,1.428c2.52,1.456,4.004,4.2,4.004,8.344z M90.586,25.488c0-2.548-0.756-4.48-2.184-5.544c-1.148-0.84-2.632-1.148-4.424-1.148l-2.044,0l0,13.3l2.156,0c1.932,0,3.556-0.308,4.732-1.484c1.12-1.12,1.764-2.8,1.764-5.124z M110.956,28.288c0,0.672-0.224,0.812-0.924,0.812l-8.204,0c0.224,2.156,1.792,3.64,4.004,3.64c1.176,0,2.408-0.28,3.444-0.672c0.112-0.028,0.196-0.084,0.308-0.084c0.196,0,0.336,0.112,0.392,0.336l0.392,1.428c0.028,0.14,0.056,0.252,0.056,0.336c0,0.196-0.112,0.336-0.448,0.476c-1.372,0.616-3.248,0.896-4.704,0.896c-4.396,0-7-2.8-7-7.168c0-4.2,2.772-7.112,6.944-7.112c1.708,0,3.108,0.644,4.088,1.68c1.288,1.344,1.652,3.108,1.652,5.012l0,0.42z M107.624,26.888l0-0.308c-0.056-1.456-0.896-2.8-2.604-2.8c-1.82,0-2.912,1.456-3.136,3.108l5.74,0z M126.65,21.932c0,0.084-0.028,0.168-0.056,0.28l-4.9,12.376c-0.168,0.42-0.392,0.532-0.812,0.532l-1.456,0c-0.42,0-0.7-0.112-0.84-0.504l-4.816-12.488c-0.028-0.084-0.056-0.168-0.056-0.252c0-0.224,0.14-0.336,0.504-0.336l2.464,0c0.476,0,0.7,0.196,0.812,0.56l2.128,6.524c0.28,0.84,0.532,1.764,0.7,2.38l0.028,0c0.14-0.532,0.42-1.512,0.672-2.296l2.184-6.58c0.14-0.476,0.364-0.588,0.868-0.588l2.016,0c0.364,0,0.56,0.14,0.56,0.392z"/><path fill="#f0e511" d="M147.624,29.464c0,3.892-3.164,5.992-6.804,5.992c-1.68,0-3.668-0.308-5.348-0.896c-0.364-0.14-0.476-0.308-0.476-0.532c0-0.112,0-0.224,0.056-0.364l0.588-1.82c0.084-0.28,0.224-0.448,0.504-0.448c0.112,0,0.252,0.028,0.42,0.084c1.316,0.476,2.772,0.84,4.172,0.84c1.512,0,3.22-0.728,3.22-2.492c0-1.288-0.952-1.988-2.044-2.52l-3.64-1.82c-1.988-0.98-3.304-2.632-3.304-4.816c0-3.416,3.36-5.292,6.468-5.292c1.848,0,3.388,0.28,5.012,0.98c0.364,0.168,0.56,0.336,0.56,0.56c0,0.112-0.028,0.224-0.084,0.364l-0.672,1.708c-0.112,0.308-0.28,0.42-0.476,0.42c-0.14,0-0.28-0.056-0.448-0.112c-1.148-0.476-2.576-0.868-3.696-0.868c-1.316,0-2.828,0.56-2.828,2.128c0,1.148,1.064,1.82,1.988,2.268l3.108,1.512c2.212,1.064,3.724,2.548,3.724,5.124z M164.41,34.56c0,0.42-0.084,0.56-0.448,0.56l-2.464,0c-0.392,0-0.476-0.112-0.476-0.56l0-7.784c0-1.512-0.42-2.632-2.1-2.632c-1.092,0-2.492,0.588-3.36,1.344l0,9.072c0,0.42-0.112,0.56-0.532,0.56l-2.408,0c-0.336,0-0.448-0.14-0.448-0.504l0-18.508c0-0.504,0.224-0.644,0.616-0.7l1.932-0.252c0.112-0.028,0.252-0.028,0.364-0.028c0.308,0,0.476,0.14,0.476,0.532l0,7.028c1.176-0.98,2.94-1.512,4.424-1.512c3.136,0,4.424,1.988,4.424,5.012l0,8.372z M182.288,28.316c0,4.032-2.464,7.14-6.832,7.14c-4.564,0-6.664-3.08-6.664-7.168c0-4.032,2.464-7.112,6.832-7.112c4.564,0,6.664,3.024,6.664,7.14z M178.788,28.316c0-2.296-0.728-4.48-3.192-4.48c-2.492,0-3.304,2.156-3.304,4.396c0,2.296,0.7,4.564,3.192,4.564c2.464,0,3.304-2.184,3.304-4.48z M199.55,28.148c0,2.128-0.644,4.06-1.82,5.432c-1.036,1.176-2.492,1.904-4.312,1.904c-1.288,0-2.576-0.476-3.388-1.316l0,6.272c0,0.56-0.252,0.728-0.728,0.728l-1.96,0c-0.448,0-0.672-0.252-0.672-0.728l0-18.256c0-0.476,0.224-0.644,0.672-0.644l1.68,0c0.476,0,0.728,0.112,0.756,0.532l0.028,0.756c0.812-0.924,2.408-1.624,3.92-1.624c1.848,0,3.136,0.7,4.06,1.708c1.204,1.316,1.764,3.276,1.764,5.236z M196.022,28.316c0-1.316-0.252-2.464-0.812-3.248c-0.532-0.756-1.316-1.148-2.296-1.148c-1.036,0-2.324,0.672-2.884,1.372l0,6.104c0.56,0.756,1.68,1.372,2.744,1.372c0.98,0,1.764-0.448,2.24-1.036c0.7-0.868,1.008-2.044,1.008-3.416z"/></svg>
